<?xml version="1.0" encoding="UTF-8" standalone="no"?>
<svg
   xmlns:dc="http://purl.org/dc/elements/1.1/"
   xmlns:cc="http://creativecommons.org/ns#"
   xmlns:rdf="http://www.w3.org/1999/02/22-rdf-syntax-ns#"
   xmlns:svg="http://www.w3.org/2000/svg"
   xmlns="http://www.w3.org/2000/svg"
   style="shape-rendering:crispEdges"
   version="1.1"
   id="svg2"
   viewBox="0 0 14.999999 14.999999"
   height="15"
   width="15">
  <defs
     id="defs4" />
  <metadata
     id="metadata7">
    <rdf:RDF>
      <cc:Work
         rdf:about="">
        <dc:format>image/svg+xml</dc:format>
        <dc:type
           rdf:resource="http://purl.org/dc/dcmitype/StillImage" />
        <dc:title></dc:title>
      </cc:Work>
    </rdf:RDF>
  </metadata>
  <g
     transform="translate(-210,-362.36222)"
     id="layer1">
    <path
       d="m 215,372.36221 5,0 0,5 -5,0 z m 5,-5 5,0 0,10 -5,0 z m -5,-5 10,0 0,5 -10,0 z m -5,0 5,0 0,14.99999 -5,0 z"
       style="fill:#808000;stroke:none;stroke-width:4;stroke-miterlimit:4;stroke-dasharray:none;stroke-opacity:1"
       id="rect4148" />
    <path
       d="m 215,372.36221 5,0 0,1 -5,0 z m 0,-6 5,0 0,1 -5,0 z m 5,0 1,0 0,7 -1,0 z m -6,0 1,0 0,7 -1,0 z m -3,-4 13,0 0,1 -13,0 z m 0,14 13,0 0,1 -13,0 z m -1,-14 1,0 0,15 -1,0 z m 14,0 1,0 0,15.00001 -1,0 z"
       style="fill:#00ff00;stroke:none;stroke-width:4;stroke-miterlimit:4;stroke-dasharray:none;stroke-opacity:1"
       id="rect4166" />
  </g>
</svg>
